<svg xmlns="http://www.w3.org/2000/svg" viewBox="0 0 50 50"><defs><style>.cls-1{fill:#fe491a;}.cls-2{fill:#fff;}</style></defs><title>icon-lp</title><g id="Layer_2" data-name="Layer 2"><g id="Layer_1-2" data-name="Layer 1"><circle class="cls-1" cx="40.43" cy="39.51" r="0.86"/><circle class="cls-1" cx="35.29" cy="39.51" r="0.86"/><circle class="cls-1" cx="30.14" cy="39.51" r="0.86"/><circle class="cls-1" cx="25" cy="39.51" r="0.86"/><circle class="cls-1" cx="19.86" cy="39.51" r="0.86"/><circle class="cls-1" cx="9.57" cy="39.51" r="0.86"/><path class="cls-1" d="M36.63,50H13.37A13.38,13.38,0,0,1,0,36.63V13.37A13.38,13.38,0,0,1,13.37,0H36.63A13.38,13.38,0,0,1,50,13.37V36.63A13.38,13.38,0,0,1,36.63,50ZM13.37,1.67a11.72,11.72,0,0,0-11.7,11.7V36.63a11.72,11.72,0,0,0,11.7,11.7H36.63a11.72,11.72,0,0,0,11.7-11.7V13.37a11.72,11.72,0,0,0-11.7-11.7Z"/><circle class="cls-1" cx="45.57" cy="39.51" r="0.86"/><circle class="cls-1" cx="48.14" cy="36.94" r="0.86"/><circle class="cls-1" cx="43" cy="42.08" r="0.86"/><circle class="cls-1" cx="43" cy="36.94" r="0.86"/><circle class="cls-1" cx="37.86" cy="42.08" r="0.86"/><circle class="cls-1" cx="40.43" cy="44.66" r="0.86"/><circle class="cls-1" cx="37.86" cy="47.23" r="0.86"/><circle class="cls-1" cx="32.71" cy="42.08" r="0.86"/><circle class="cls-1" cx="32.71" cy="36.94" r="0.86"/><circle class="cls-1" cx="35.29" cy="44.66" r="0.86"/><circle class="cls-1" cx="32.71" cy="47.23" r="0.86"/><circle class="cls-1" cx="27.57" cy="42.08" r="0.86"/><circle class="cls-1" cx="30.14" cy="44.66" r="0.86"/><circle class="cls-1" cx="27.57" cy="47.23" r="0.86"/><circle class="cls-1" cx="22.43" cy="42.08" r="0.86"/><circle class="cls-1" cx="25" cy="44.66" r="0.86"/><circle class="cls-1" cx="22.43" cy="47.23" r="0.86"/><circle class="cls-1" cx="17.29" cy="42.08" r="0.86"/><circle class="cls-1" cx="19.86" cy="44.66" r="0.86"/><circle class="cls-1" cx="17.29" cy="47.23" r="0.86"/><circle class="cls-1" cx="12.14" cy="42.08" r="0.86"/><circle class="cls-1" cx="14.71" cy="44.66" r="0.86"/><circle class="cls-1" cx="12.14" cy="47.23" r="0.86"/><circle class="cls-1" cx="7" cy="42.08" r="0.86"/><circle class="cls-1" cx="9.57" cy="44.66" r="0.86"/><circle class="cls-1" cx="4.43" cy="39.51" r="0.86"/><circle class="cls-1" cx="1.86" cy="36.94" r="0.86"/><circle class="cls-1" cx="4.43" cy="44.66" r="0.86"/><circle class="cls-1" cx="44.71" cy="44.66" r="0.86"/><circle class="cls-1" cx="45.57" cy="29.23" r="0.86"/><circle class="cls-1" cx="48.14" cy="26.66" r="0.86"/><circle class="cls-1" cx="48.14" cy="31.8" r="0.86"/><circle class="cls-1" cx="45.57" cy="34.37" r="0.86"/><circle class="cls-1" cx="4.43" cy="29.23" r="0.86"/><circle class="cls-1" cx="1.86" cy="26.66" r="0.86"/><circle class="cls-1" cx="1.86" cy="31.8" r="0.86"/><circle class="cls-1" cx="4.43" cy="34.37" r="0.86"/><path class="cls-1" d="M39.11,36.81l-7.57-4.5H24.41a3.75,3.75,0,0,1-3.75-3.75V19.23a3.75,3.75,0,0,1,3.75-3.75h16.4a3.75,3.75,0,0,1,3.75,3.75v9.33a3.75,3.75,0,0,1-3.75,3.75h-1.7ZM24.41,17.48a1.75,1.75,0,0,0-1.75,1.75v9.33a1.75,1.75,0,0,0,1.75,1.75h7.68l5,3v-3h3.7a1.75,1.75,0,0,0,1.75-1.75V19.23a1.75,1.75,0,0,0-1.75-1.75Z"/><rect class="cls-1" x="23.61" y="18.88" width="17.83" height="1.42"/><rect class="cls-1" x="27.91" y="21.58" width="8.15" height="1.42"/><rect class="cls-1" x="28.54" y="24.15" width="10.17" height="1.7"/><rect class="cls-1" x="28.3" y="27.03" width="13.14" height="1.35"/><path class="cls-2" d="M25.55,20.77H9.15A2.75,2.75,0,0,0,6.4,23.52v9.33A2.75,2.75,0,0,0,9.15,35.6h4.67v3.74l6.29-3.74h5.44a2.75,2.75,0,0,0,2.75-2.75V23.52A2.75,2.75,0,0,0,25.55,20.77Z"/><path class="cls-1" d="M12.82,41.1V36.6H9.15A3.75,3.75,0,0,1,5.4,32.85V23.52a3.75,3.75,0,0,1,3.75-3.75h16.4a3.75,3.75,0,0,1,3.75,3.75v9.33a3.75,3.75,0,0,1-3.75,3.75H20.38ZM9.15,21.77A1.75,1.75,0,0,0,7.4,23.52v9.33A1.75,1.75,0,0,0,9.15,34.6h5.67v3l5-3h5.72a1.75,1.75,0,0,0,1.75-1.75V23.52a1.75,1.75,0,0,0-1.75-1.75Z"/><path class="cls-1" d="M19.22,29.27a2.91,2.91,0,0,0-.4-.77,3,3,0,0,0-.61-.62,2.82,2.82,0,0,0-.77-.42,12.28,12.28,0,0,1-1.24-.31,1.05,1.05,0,0,1-.42-.44,1.25,1.25,0,0,1-.15-.58,1.14,1.14,0,0,1,.57-1s.78-.46,1.24,0a1.17,1.17,0,0,1,.26.23l.2.23a1.05,1.05,0,0,0,.2.18.49.49,0,0,0,.28.07.6.6,0,0,0,.62-.62A.61.61,0,0,0,19,25a.86.86,0,0,0-.07-.15,1.94,1.94,0,0,0-.28-.39,2.42,2.42,0,0,0-.76-.56,2.32,2.32,0,0,0-.43-.15v-.37a.62.62,0,1,0-1.24,0v.37a2.34,2.34,0,0,0-.74.34,2.47,2.47,0,0,0-.57.54,2.45,2.45,0,0,0-.5,1.49,2.29,2.29,0,0,0,.14.79,2.48,2.48,0,0,0,1,1.22,2.35,2.35,0,0,0,.72.32,4.3,4.3,0,0,1,1.24.36,1.39,1.39,0,0,1,.51.58,1.71,1.71,0,0,1,.17.73,2.11,2.11,0,0,1,0,.42,1.36,1.36,0,0,1-.12.34,1.29,1.29,0,0,1-.21.3,2.93,2.93,0,0,1-.31.28,1.81,1.81,0,0,1-1.24.28,1.26,1.26,0,0,1-.4-.13,1.86,1.86,0,0,1-.31-.2,2.12,2.12,0,0,1-.24-.23L15,31a1.24,1.24,0,0,0-.22-.17.48.48,0,0,0-.25-.07.62.62,0,0,0-.49,1,2.82,2.82,0,0,0,.92.88,2.92,2.92,0,0,0,1.21.4v.3a.61.61,0,0,0,0,.24.64.64,0,0,0,.13.2.58.58,0,0,0,.2.13.62.62,0,0,0,.24,0,.61.61,0,0,0,.24,0,.62.62,0,0,0,.33-.33.61.61,0,0,0,0-.24v-.44a2.82,2.82,0,0,0,.8-.44,3,3,0,0,0,.6-.64,2.87,2.87,0,0,0,.38-.79,3,3,0,0,0,.13-.89A2.66,2.66,0,0,0,19.22,29.27Z"/></g></g></svg>