<svg xmlns="http://www.w3.org/2000/svg" viewBox="0 0 50 50"><defs><style>.cls-1{fill:#fe491a;}</style></defs><title>icon-ad</title><g id="Layer_2" data-name="Layer 2"><g id="Layer_1-2" data-name="Layer 1"><path class="cls-1" d="M36.63,50H13.37A13.38,13.38,0,0,1,0,36.63V13.37A13.38,13.38,0,0,1,13.37,0H36.63A13.38,13.38,0,0,1,50,13.37V36.63A13.38,13.38,0,0,1,36.63,50ZM13.37,1.67a11.72,11.72,0,0,0-11.7,11.7V36.63a11.72,11.72,0,0,0,11.7,11.7H36.63a11.72,11.72,0,0,0,11.7-11.7V13.37a11.72,11.72,0,0,0-11.7-11.7Z"/><path class="cls-1" d="M44,42.23H6V14.51H44Zm-36-2H42V16.51H8Z"/><path class="cls-1" d="M44,25.08H6V14.51H44Zm-36-2H42V16.51H8Z"/><rect class="cls-1" x="10.43" y="18.8" width="6.86" height="2"/><path class="cls-1" d="M36.14,22.51a1,1,0,0,1-.71-1.71l3.43-3.43a1,1,0,0,1,1.41,1.41l-3.43,3.43A1,1,0,0,1,36.14,22.51Z"/><path class="cls-1" d="M39.57,22.51a1,1,0,0,1-.71-.29l-3.43-3.43a1,1,0,0,1,1.41-1.41l3.43,3.43a1,1,0,0,1-.71,1.71Z"/><rect class="cls-1" x="12.14" y="28.23" width="12.86" height="2"/><rect class="cls-1" x="12.14" y="31.66" width="22.29" height="2"/><rect class="cls-1" x="12.14" y="35.08" width="22.29" height="2"/><circle class="cls-1" cx="45.57" cy="39.51" r="0.86"/><circle class="cls-1" cx="48.14" cy="36.94" r="0.86"/><circle class="cls-1" cx="43" cy="42.08" r="0.86"/><circle class="cls-1" cx="37.86" cy="42.08" r="0.86"/><circle class="cls-1" cx="40.43" cy="44.66" r="0.86"/><circle class="cls-1" cx="37.86" cy="47.23" r="0.86"/><circle class="cls-1" cx="32.71" cy="42.08" r="0.86"/><circle class="cls-1" cx="35.28" cy="44.66" r="0.86"/><circle class="cls-1" cx="32.71" cy="47.23" r="0.86"/><circle class="cls-1" cx="27.57" cy="42.08" r="0.86"/><circle class="cls-1" cx="30.14" cy="44.66" r="0.86"/><circle class="cls-1" cx="27.57" cy="47.23" r="0.86"/><circle class="cls-1" cx="22.43" cy="42.08" r="0.86"/><circle class="cls-1" cx="25" cy="44.66" r="0.86"/><circle class="cls-1" cx="22.43" cy="47.23" r="0.86"/><circle class="cls-1" cx="17.28" cy="42.08" r="0.86"/><circle class="cls-1" cx="19.86" cy="44.66" r="0.86"/><circle class="cls-1" cx="17.28" cy="47.23" r="0.86"/><circle class="cls-1" cx="12.14" cy="42.08" r="0.86"/><circle class="cls-1" cx="14.71" cy="44.66" r="0.86"/><circle class="cls-1" cx="12.14" cy="47.23" r="0.86"/><circle class="cls-1" cx="7" cy="42.08" r="0.86"/><circle class="cls-1" cx="9.57" cy="44.66" r="0.86"/><circle class="cls-1" cx="4.43" cy="39.51" r="0.86"/><circle class="cls-1" cx="1.86" cy="36.94" r="0.86"/><circle class="cls-1" cx="4.43" cy="44.66" r="0.86"/><circle class="cls-1" cx="44.71" cy="44.66" r="0.86"/><circle class="cls-1" cx="45.57" cy="29.23" r="0.86"/><circle class="cls-1" cx="48.14" cy="26.66" r="0.86"/><circle class="cls-1" cx="48.14" cy="31.8" r="0.86"/><circle class="cls-1" cx="45.57" cy="34.37" r="0.86"/><circle class="cls-1" cx="4.43" cy="29.23" r="0.86"/><circle class="cls-1" cx="1.86" cy="26.66" r="0.86"/><circle class="cls-1" cx="1.86" cy="31.8" r="0.86"/><circle class="cls-1" cx="4.43" cy="34.37" r="0.86"/></g></g></svg>