<svg xmlns="http://www.w3.org/2000/svg" viewBox="0 0 50 50"><defs><style>.cls-1{fill:#fe491a;}</style></defs><title>icon-analytics</title><g id="Layer_2" data-name="Layer 2"><g id="Layer_1-2" data-name="Layer 1"><path class="cls-1" d="M36.63,50H13.37A13.38,13.38,0,0,1,0,36.63V13.37A13.38,13.38,0,0,1,13.37,0H36.63A13.38,13.38,0,0,1,50,13.37V36.63A13.38,13.38,0,0,1,36.63,50ZM13.37,1.67a11.72,11.72,0,0,0-11.7,11.7V36.63a11.72,11.72,0,0,0,11.7,11.7H36.63a11.72,11.72,0,0,0,11.7-11.7V13.37a11.72,11.72,0,0,0-11.7-11.7Z"/><path class="cls-1" d="M6.67,35.83A3.33,3.33,0,1,1,10,32.5,3.34,3.34,0,0,1,6.67,35.83Zm0-5A1.67,1.67,0,1,0,8.33,32.5,1.67,1.67,0,0,0,6.67,30.83Z"/><path class="cls-1" d="M22.5,33.33A3.33,3.33,0,1,1,25.83,30,3.34,3.34,0,0,1,22.5,33.33Zm0-5A1.67,1.67,0,1,0,24.17,30,1.67,1.67,0,0,0,22.5,28.33Z"/><path class="cls-1" d="M36.67,30.83A3.33,3.33,0,1,1,40,27.5,3.34,3.34,0,0,1,36.67,30.83Zm0-5a1.67,1.67,0,1,0,1.67,1.67A1.67,1.67,0,0,0,36.67,25.83Z"/><path class="cls-1" d="M38.33,50H11.67A11.68,11.68,0,0,1,0,38.33V38l4.9-4.9.59.59a1.71,1.71,0,0,0,2.36,0l.59-.59,4.9,4.9,7.4-7.4.59.59a1.71,1.71,0,0,0,2.36,0l.59-.59,4.07,4.07,6.57-6.57.59.59a1.71,1.71,0,0,0,2.36,0l.59-.59,7.4,7.4L50,31.32v7A11.68,11.68,0,0,1,38.33,50ZM1.67,38.67a10,10,0,0,0,10,9.66H38.33a10,10,0,0,0,10-10v-3l-2.5,2.5-7.47-7.47a3.4,3.4,0,0,1-3.39,0L28.33,37l-4.14-4.14a3.4,3.4,0,0,1-3.39,0l-7.47,7.47-5-5a3.4,3.4,0,0,1-3.39,0Z"/><circle class="cls-1" cx="45.83" cy="43.33" r="0.83"/><circle class="cls-1" cx="48.33" cy="40.83" r="0.83"/><circle class="cls-1" cx="43.33" cy="40.83" r="0.83"/><circle class="cls-1" cx="43.33" cy="45.83" r="0.83"/><circle class="cls-1" cx="40.83" cy="43.33" r="0.83"/><circle class="cls-1" cx="38.33" cy="40.83" r="0.83"/><circle class="cls-1" cx="38.33" cy="45.83" r="0.83"/><circle class="cls-1" cx="40.83" cy="48.33" r="0.83"/><circle class="cls-1" cx="35.83" cy="43.33" r="0.83"/><circle class="cls-1" cx="33.33" cy="40.83" r="0.83"/><circle class="cls-1" cx="33.33" cy="45.83" r="0.83"/><circle class="cls-1" cx="35.83" cy="48.33" r="0.83"/><circle class="cls-1" cx="30.83" cy="43.33" r="0.83"/><circle class="cls-1" cx="28.33" cy="40.83" r="0.83"/><circle class="cls-1" cx="28.33" cy="45.83" r="0.83"/><circle class="cls-1" cx="30.83" cy="48.33" r="0.83"/><circle class="cls-1" cx="25.83" cy="43.33" r="0.83"/><circle class="cls-1" cx="23.33" cy="40.83" r="0.83"/><circle class="cls-1" cx="23.33" cy="45.83" r="0.83"/><circle class="cls-1" cx="25.83" cy="48.33" r="0.83"/><circle class="cls-1" cx="20.83" cy="43.33" r="0.83"/><circle class="cls-1" cx="18.33" cy="40.83" r="0.83"/><circle class="cls-1" cx="18.33" cy="45.83" r="0.83"/><circle class="cls-1" cx="20.83" cy="48.33" r="0.83"/><circle class="cls-1" cx="15.83" cy="43.33" r="0.83"/><circle class="cls-1" cx="13.33" cy="40.83" r="0.83"/><circle class="cls-1" cx="13.33" cy="45.83" r="0.83"/><circle class="cls-1" cx="15.83" cy="48.33" r="0.83"/><circle class="cls-1" cx="10.83" cy="43.33" r="0.83"/><circle class="cls-1" cx="8.33" cy="40.83" r="0.83"/><circle class="cls-1" cx="8.33" cy="45.83" r="0.83"/><circle class="cls-1" cx="10.83" cy="48.33" r="0.83"/><circle class="cls-1" cx="5.83" cy="43.33" r="0.83"/><circle class="cls-1" cx="3.33" cy="40.83" r="0.83"/><circle class="cls-1" cx="43.33" cy="35.83" r="0.83"/><circle class="cls-1" cx="45.83" cy="38.33" r="0.83"/><circle class="cls-1" cx="40.83" cy="33.33" r="0.83"/><circle class="cls-1" cx="38.33" cy="30.83" r="0.83"/><circle class="cls-1" cx="38.33" cy="35.83" r="0.83"/><circle class="cls-1" cx="40.83" cy="38.33" r="0.83"/><circle class="cls-1" cx="35.83" cy="33.33" r="0.83"/><circle class="cls-1" cx="33.33" cy="35.83" r="0.83"/><circle class="cls-1" cx="35.83" cy="38.33" r="0.83"/><circle class="cls-1" cx="30.83" cy="38.33" r="0.83"/><circle class="cls-1" cx="23.33" cy="35.83" r="0.83"/><circle class="cls-1" cx="25.83" cy="38.33" r="0.83"/><circle class="cls-1" cx="20.83" cy="33.33" r="0.83"/><circle class="cls-1" cx="18.33" cy="35.83" r="0.83"/><circle class="cls-1" cx="20.83" cy="38.33" r="0.83"/><circle class="cls-1" cx="15.83" cy="38.33" r="0.83"/><circle class="cls-1" cx="8.33" cy="35.83" r="0.83"/><circle class="cls-1" cx="10.83" cy="38.33" r="0.83"/><circle class="cls-1" cx="5.83" cy="38.33" r="0.83"/></g></g></svg>