<svg xmlns="http://www.w3.org/2000/svg" viewBox="0 0 83.73 100"><defs><style>.cls-1{fill:#fff;}</style></defs><title>keeper-k-white</title><g id="Layer_2" data-name="Layer 2"><g id="Layer_1-2" data-name="Layer 1"><path class="cls-1" d="M19.36,64a20.33,20.33,0,0,1,0-28.75l7.45-7.45V13.41A13.41,13.41,0,1,0,0,13.41V86.59a13.41,13.41,0,0,0,26.82,0V71.41Z"/><path class="cls-1" d="M57.59,54.68,52.7,49.79l4.89-4.89,21.8-21.8a13.41,13.41,0,0,0-19-19L24.26,40.31a13.41,13.41,0,0,0,0,19L60.85,95.86a13.41,13.41,0,1,0,19-19Z"/><path class="cls-1" d="M13.8,45.81a20.33,20.33,0,0,1,3-7.29A20.33,20.33,0,0,0,13.8,45.81Z"/></g></g></svg>