<svg xmlns="http://www.w3.org/2000/svg" viewBox="0 0 100 100"><defs><style>.cls-1{fill:#fff;}.cls-2{fill:#fe491a;}</style></defs><title>keeper-circle-white</title><g id="Layer_2" data-name="Layer 2"><g id="Layer_1-2" data-name="Layer 1"><rect class="cls-1" width="100" height="100" rx="50" ry="50"/><path class="cls-2" d="M37.79,57.57a11,11,0,0,1,0-15.6l4-4V30.15a7.27,7.27,0,1,0-14.55,0v39.7a7.27,7.27,0,0,0,14.55,0V61.62Z"/><path class="cls-2" d="M58.53,52.54l-2.65-2.66,2.66-2.66L70.36,35.41A7.27,7.27,0,0,0,60.07,25.12L40.45,44.74a7.27,7.27,0,0,0,0,10.29L60.3,74.88A7.27,7.27,0,1,0,70.59,64.59Z"/><path class="cls-2" d="M34.78,47.72a11,11,0,0,1,1.64-4A11,11,0,0,0,34.78,47.72Z"/></g></g></svg>