<svg xmlns="http://www.w3.org/2000/svg" viewBox="0 0 186.6 60"><defs><style>.cls-1{fill:#fe491a;}</style></defs><title>keeper-word-red</title><g id="Layer_2" data-name="Layer 2"><g id="Layer_1-2" data-name="Layer 1"><path class="cls-1" d="M42.91,13.85a15.57,15.57,0,0,0-11.42,4.73A15.57,15.57,0,0,0,26.76,30a15.56,15.56,0,0,0,4.73,11.42,15.56,15.56,0,0,0,11.42,4.73,15.52,15.52,0,0,0,10.53-3.89,2.3,2.3,0,0,0,.66-1.65,2.31,2.31,0,0,0-2.31-2.31,2.3,2.3,0,0,0-1.44.49,10.89,10.89,0,0,1-7.44,2.74,11.59,11.59,0,0,1-11.34-9.23H56.76A2.31,2.31,0,0,0,59.06,30a15.57,15.57,0,0,0-4.73-11.42A15.57,15.57,0,0,0,42.91,13.85ZM31.57,27.69a11.59,11.59,0,0,1,11.34-9.23,11.59,11.59,0,0,1,11.34,9.23Z"/><path class="cls-1" d="M76.88,13.85a15.57,15.57,0,0,0-11.42,4.73A15.57,15.57,0,0,0,60.73,30a15.56,15.56,0,0,0,4.73,11.42,16.17,16.17,0,0,0,22,.84,2.3,2.3,0,0,0,.66-1.65,2.31,2.31,0,0,0-2.31-2.31,2.3,2.3,0,0,0-1.44.49,10.89,10.89,0,0,1-7.44,2.74,11.59,11.59,0,0,1-11.34-9.23H90.73A2.31,2.31,0,0,0,93,30,15.57,15.57,0,0,0,88.3,18.58,15.57,15.57,0,0,0,76.88,13.85ZM65.54,27.69A11.57,11.57,0,0,1,85,21.84a11.11,11.11,0,0,1,3.17,5.86Z"/><path class="cls-1" d="M110.85,13.85a15.57,15.57,0,0,0-11.42,4.73A15.57,15.57,0,0,0,94.69,30V57.69a2.31,2.31,0,0,0,4.62,0V41.31l.12.11a16.16,16.16,0,0,0,22.85,0A15.56,15.56,0,0,0,127,30a15.57,15.57,0,0,0-4.73-11.42A15.57,15.57,0,0,0,110.85,13.85ZM119,38.16A11.54,11.54,0,0,1,99.31,30a11.54,11.54,0,1,1,23.08,0A11.12,11.12,0,0,1,119,38.16Z"/><path class="cls-1" d="M144.82,13.85a15.57,15.57,0,0,0-11.42,4.73A15.57,15.57,0,0,0,128.66,30a15.56,15.56,0,0,0,4.73,11.42,16.17,16.17,0,0,0,22,.84,2.3,2.3,0,0,0,.66-1.65,2.31,2.31,0,0,0-2.31-2.31,2.3,2.3,0,0,0-1.44.49,10.89,10.89,0,0,1-7.44,2.74,11.59,11.59,0,0,1-11.34-9.23h25.18A2.31,2.31,0,0,0,161,30a15.57,15.57,0,0,0-4.73-11.42A15.57,15.57,0,0,0,144.82,13.85ZM133.48,27.69a11.58,11.58,0,0,1,22.67,0Z"/><path class="cls-1" d="M185.94,15.61a3,3,0,0,0-1-.61,16.26,16.26,0,0,0-6.2-1.15,15.76,15.76,0,0,0-11.54,4.85V16.15a2.31,2.31,0,0,0-4.62,0V43.85a2.31,2.31,0,0,0,4.62,0V30a11.52,11.52,0,0,1,11.54-11.54,11.44,11.44,0,0,1,4.5.87,2.31,2.31,0,0,0,3.32-2.08A2.3,2.3,0,0,0,185.94,15.61Z"/><path class="cls-1" d="M7,23.05,26.09,4a2.29,2.29,0,0,0,.66-1.64A2.22,2.22,0,0,0,26.08.68,2.22,2.22,0,0,0,24.45,0a2.39,2.39,0,0,0-1.7.72L4.62,18.83V2.31A2.22,2.22,0,0,0,3.94.68,2.22,2.22,0,0,0,2.31,0,2.22,2.22,0,0,0,.68.68,2.22,2.22,0,0,0,0,2.31V43.85a2.22,2.22,0,0,0,.68,1.63,2.22,2.22,0,0,0,1.63.68,2.22,2.22,0,0,0,1.63-.68,2.22,2.22,0,0,0,.68-1.63V27.28L22.8,45.49a2.29,2.29,0,0,0,1.64.66,2.32,2.32,0,0,0,2.31-2.31,2.39,2.39,0,0,0-.72-1.7Z"/></g></g></svg>